<svg width="48" height="48" viewBox="0 0 48 48" fill="none" xmlns="http://www.w3.org/2000/svg">
<g id="Quotes-r">
<path id="Vector" d="M38.834 13.358C40.894 15.546 42 18 42 21.978C42 28.978 37.086 35.252 29.94 38.354L28.154 35.598C34.824 31.99 36.128 27.308 36.648 24.356C35.574 24.912 34.168 25.106 32.79 24.978C29.182 24.644 26.338 21.682 26.338 18C26.338 16.1435 27.0755 14.363 28.3883 13.0503C29.701 11.7375 31.4815 11 33.338 11C34.3647 11.009 35.3793 11.2221 36.3229 11.6269C37.2664 12.0317 38.12 12.6202 38.834 13.358ZM18.834 13.358C20.894 15.546 22 18 22 21.978C22 28.978 17.086 35.252 9.93999 38.354L8.154 35.598C14.824 31.99 16.128 27.308 16.648 24.356C15.574 24.912 14.168 25.106 12.79 24.978C9.182 24.644 6.338 21.682 6.338 18C6.338 16.1435 7.07549 14.363 8.38825 13.0503C9.70101 11.7375 11.4815 11 13.338 11C14.3647 11.009 15.3793 11.2221 16.3229 11.6269C17.2664 12.0317 18.12 12.6202 18.834 13.358Z" fill="#BB9185"/>
</g>
</svg>
