<svg width="163" height="203" viewBox="0 0 163 203" fill="none" xmlns="http://www.w3.org/2000/svg">
<g id="Logo Danessa Myricks">
<g id="Group 281">
<path id="IMG_2438-removebg 1 (Traced)" fill-rule="evenodd" clip-rule="evenodd" d="M67.9048 0.44207C63.5066 1.88036 60.3589 4.93049 56.2974 11.6905C51.8276 19.1294 49.4582 26.1409 47.9822 36.2946C47.3234 40.8269 47.1889 45.1839 47.1744 62.4633L47.1568 83.1948L44.8929 83.2057C42.1508 83.2192 38.712 84.5719 33.9298 87.5187C29.2349 90.412 18.5951 101.085 13.1685 108.345C6.52177 117.237 3.77386 123.471 3.78065 129.643C3.78473 133.326 4.62282 135.583 6.60508 137.253C9.97556 140.091 13.797 139.99 19.9647 136.899C27.0896 133.329 34.9875 126.153 44.4116 114.689C46.8702 111.698 49.1304 108.978 49.4342 108.644C50.1365 107.873 51.2884 113.791 53.4775 129.416C55.6817 145.149 56.6574 149.819 58.512 153.504C59.4777 155.424 60.3525 156.605 60.808 156.605C61.7661 156.605 61.6054 154.534 58.6931 129.416C57.4652 118.824 56.2621 107.52 56.0199 104.296L55.5798 98.4336L58.123 95.0518C66.2115 84.2959 76.1984 61.9581 80.0243 46.0644C83.4636 31.7771 84.0581 27.8574 84.0581 19.4742C84.0581 12.6299 83.9377 11.3103 83.1123 9.1017C82.0732 6.323 78.5438 2.31311 75.9593 0.975422C73.9358 -0.0717992 70.2271 -0.317404 67.9048 0.44207ZM74.2315 9.75921C76.0222 11.889 76.5905 15.1059 76.5574 22.9267C76.5085 34.5205 73.7212 49.1956 69.5783 59.6706C65.7311 69.3983 56.5066 85.2117 55.3484 84.0648C55.2022 83.9198 54.6584 82.1865 54.1404 80.2131C52.9125 75.5361 52.845 68.8137 53.8592 52.1547C54.9201 34.7271 56.1847 28.4832 60.4675 19.5281C64.1078 11.9171 67.4865 8.43104 71.2269 8.42787C72.7573 8.42651 73.3214 8.67619 74.2315 9.75921ZM78.9544 65.1827C78.072 65.8497 77.9438 67.9188 77.2515 92.7113C76.6919 112.763 76.0023 130.572 75.6555 133.948C75.4232 136.206 75.5332 136.642 76.8268 138.59C78.2925 140.798 80.0271 141.69 82.0858 141.296C82.923 141.136 83.0983 140.696 83.36 138.096C83.8485 133.245 86.2134 122.019 88.187 115.183C91.2858 104.448 96.1645 92.797 100.252 86.3673C102.463 82.8907 103.113 82.525 104.078 84.2148C104.526 85.001 104.66 89.5941 104.66 104.267C104.66 124.853 104.807 126.309 107.066 128.088C107.677 128.569 108.868 128.963 109.711 128.963C111.479 128.963 111.207 129.444 114.207 121.033C120.036 104.695 129.675 89.2289 131.843 92.7385C132.006 93.0022 132.523 96.3161 132.99 100.102C134.993 116.299 138.614 122.902 146.584 124.891C148.096 125.268 149.375 125.278 151.263 124.929C154.875 124.261 159.219 122.252 159.219 121.25C159.219 120.195 157.96 119.914 153.205 119.906C150.909 119.903 148.614 119.642 147.772 119.29C146.172 118.619 143.361 115.725 142.283 113.638C141.173 111.491 139.777 105.925 139.307 101.774C139.067 99.6558 138.545 94.9657 138.149 91.3519C137.064 81.476 136.166 80.0477 131.378 80.5878C126.588 81.128 121.394 88.4499 115.061 103.587C113.862 106.453 112.733 108.971 112.552 109.182C112.158 109.642 111.793 104.08 111.217 88.8596C110.982 82.6288 110.562 76.7311 110.285 75.7541C110.008 74.7767 109.205 73.4005 108.5 72.6954C104.707 68.8985 98.9785 73.6334 92.5101 85.9141C89.7314 91.1887 88.8974 93.1504 86.0531 101.095L84.1066 106.532L84.0889 99.7351C84.079 95.9966 84.3719 88.8596 84.74 83.8749C85.7144 70.6829 85.6623 68.1775 84.3914 66.9826C83.5646 66.2054 80.5206 64.6162 79.8577 64.6162C79.773 64.6162 79.3665 64.8713 78.9544 65.1827ZM47.0626 91.5784C48.1814 93.5845 48.3064 94.2076 48.1533 97.0162C47.8296 102.962 44.7054 107.779 34.9766 117.332C24.0674 128.044 18.3234 132.285 15.0548 132.04C12.5632 131.854 11.5766 130.401 11.5259 126.842C11.4919 124.439 11.7699 123.505 13.7608 119.334C16.6414 113.299 18.6698 110.321 23.5616 104.944C30.3646 97.468 37.9654 91.1239 41.7732 89.7441C44.6846 88.6892 45.6345 89.0186 47.0626 91.5784Z" fill="#0C0B0B"/>
<path id="Vector" d="M10.8667 184.7L13.8561 169.746H15.1435L18.1111 184.7H16.9765L16.2128 181.031H12.6778L11.9359 184.7H10.8667ZM12.7433 180.323H16.1691L14.4671 171.492L12.7433 180.323Z" fill="#0C0B0B"/>
<g id="Group 282">
<path id="Vector_2" d="M159.731 184.7C159.113 184.7 158.568 184.575 158.097 184.324C157.64 184.057 157.287 183.615 157.037 182.997C156.786 182.362 156.661 181.485 156.661 180.367V179.565C156.838 179.565 157.015 179.565 157.191 179.565C157.383 179.565 157.559 179.565 157.721 179.565V180.442C157.721 181.327 157.802 182.02 157.964 182.521C158.141 183.022 158.384 183.372 158.693 183.573C159.002 183.773 159.356 183.873 159.753 183.873C160.372 183.873 160.88 183.656 161.277 183.222C161.69 182.771 161.896 181.97 161.896 180.817C161.896 180.049 161.793 179.465 161.586 179.064C161.395 178.663 161.101 178.346 160.703 178.112C160.305 177.878 159.82 177.636 159.245 177.386C158.774 177.169 158.347 176.918 157.964 176.634C157.581 176.334 157.28 175.941 157.059 175.457C156.838 174.956 156.727 174.322 156.727 173.553C156.727 172.702 156.83 171.992 157.037 171.424C157.243 170.857 157.574 170.439 158.031 170.172C158.487 169.888 159.083 169.746 159.82 169.746C160.777 169.746 161.52 170.03 162.05 170.598C162.595 171.149 162.868 171.942 162.868 172.977V174.58C162.691 174.58 162.514 174.58 162.337 174.58C162.175 174.58 162.006 174.58 161.829 174.58V173.253C161.829 172.418 161.653 171.783 161.299 171.349C160.961 170.915 160.467 170.698 159.82 170.698C159.113 170.698 158.597 170.932 158.273 171.399C157.95 171.867 157.788 172.568 157.788 173.503C157.788 174.188 157.905 174.731 158.141 175.131C158.377 175.516 158.671 175.816 159.024 176.033C159.393 176.25 159.783 176.451 160.195 176.634C160.858 176.918 161.395 177.219 161.807 177.536C162.22 177.837 162.521 178.229 162.713 178.713C162.904 179.181 163 179.841 163 180.692C163 181.694 162.86 182.487 162.58 183.072C162.301 183.656 161.918 184.074 161.432 184.324C160.946 184.575 160.379 184.7 159.731 184.7Z" fill="#0C0B0B"/>
<path id="Vector_3" d="M150.557 184.7L147.146 176.907L150.453 169.746H151.556L148.186 176.957L151.681 184.7H150.557ZM145.794 184.7V169.746H146.814V184.7H145.794Z" fill="#0C0B0B"/>
<path id="Vector_4" d="M136.513 184.7C135.944 184.7 135.437 184.618 134.99 184.455C134.557 184.308 134.212 183.99 133.955 183.501C133.698 182.995 133.569 182.236 133.569 181.225V172.952C133.569 172.022 133.698 171.329 133.955 170.872C134.212 170.415 134.564 170.113 135.011 169.966C135.471 169.82 135.978 169.746 136.533 169.746C137.115 169.746 137.622 169.828 138.055 169.991C138.488 170.138 138.826 170.44 139.07 170.896C139.327 171.353 139.456 172.039 139.456 172.952V175.351H138.481V172.952C138.481 172.234 138.393 171.704 138.217 171.361C138.055 171.019 137.825 170.79 137.527 170.676C137.243 170.562 136.912 170.505 136.533 170.505C136.154 170.505 135.816 170.562 135.518 170.676C135.22 170.79 134.983 171.019 134.808 171.361C134.645 171.704 134.564 172.234 134.564 172.952V181.494C134.564 182.212 134.645 182.742 134.808 183.085C134.983 183.427 135.22 183.656 135.518 183.77C135.816 183.884 136.154 183.941 136.533 183.941C136.912 183.941 137.243 183.884 137.527 183.77C137.825 183.656 138.055 183.427 138.217 183.085C138.393 182.742 138.481 182.212 138.481 181.494V179.487H139.456V181.225C139.456 182.252 139.327 183.011 139.07 183.501C138.826 183.99 138.481 184.308 138.035 184.455C137.602 184.618 137.094 184.7 136.513 184.7Z" fill="#0C0B0B"/>
<path id="Vector_5" d="M126.325 184.7V169.746H127.231V184.7H126.325Z" fill="#0C0B0B"/>
<path id="Vector_6" d="M114.1 184.7V169.746H117.716C118.367 169.746 118.902 169.94 119.321 170.328C119.741 170.716 119.951 171.349 119.951 172.226V174.655C119.951 175.549 119.735 176.224 119.301 176.679C118.881 177.134 118.312 177.371 117.594 177.387V177.362C118.041 177.362 118.373 177.548 118.59 177.919C118.807 178.273 119.003 178.821 119.179 179.564L120.439 184.7H119.342L118.184 179.639C118.062 179.15 117.906 178.703 117.716 178.298C117.527 177.894 117.222 177.691 116.802 177.691H115.116V184.7H114.1ZM115.116 176.78H117.148C117.825 176.78 118.299 176.586 118.57 176.198C118.841 175.81 118.976 175.245 118.976 174.503V172.428C118.976 171.787 118.847 171.306 118.59 170.986C118.333 170.665 117.933 170.505 117.391 170.505H115.116V176.78Z" fill="#0C0B0B"/>
<path id="Vector_7" d="M105.014 184.54V178.007L102.623 169.746H103.732L105.514 176.279L105.601 176.655L105.666 176.279L107.6 169.746H108.643L106.079 178.057V184.54H105.014Z" fill="#0C0B0B"/>
<path id="Vector_8" d="M88.2917 184.7V169.746H89.5207L92.5931 182.575L95.7533 169.746H96.8945V184.7H95.9289V172.352L93.0101 184.7H92.1981L89.2793 172.352V184.7H88.2917Z" fill="#0C0B0B"/>
<path id="Vector_9" d="M68.8223 184.7L71.8117 169.746H73.0991L76.0667 184.7H74.932L74.1683 181.031H70.6334L69.8915 184.7H68.8223ZM70.6988 180.323H74.1247L72.4227 171.492L70.6988 180.323Z" fill="#0C0B0B"/>
<path id="Vector_10" d="M61.0256 184.7C60.4072 184.7 59.8624 184.575 59.3912 184.324C58.9347 184.057 58.5814 183.615 58.331 182.997C58.0807 182.362 57.9556 181.485 57.9556 180.367V179.565C58.1323 179.565 58.309 179.565 58.4856 179.565C58.6771 179.565 58.8538 179.565 59.0157 179.565V180.442C59.0157 181.327 59.0967 182.02 59.2587 182.521C59.4354 183.022 59.6783 183.372 59.9875 183.573C60.2968 183.773 60.6501 183.873 61.0477 183.873C61.6661 183.873 62.1741 183.656 62.5717 183.222C62.984 182.771 63.1901 181.97 63.1901 180.817C63.1901 180.049 63.087 179.465 62.8809 179.064C62.6895 178.663 62.395 178.346 61.9974 178.112C61.5999 177.878 61.114 177.636 60.5397 177.386C60.0685 177.169 59.6415 176.918 59.2587 176.634C58.8758 176.334 58.574 175.941 58.3531 175.457C58.1323 174.956 58.0218 174.322 58.0218 173.553C58.0218 172.702 58.1249 171.992 58.331 171.424C58.5372 170.857 58.8685 170.439 59.3249 170.172C59.7814 169.888 60.3777 169.746 61.114 169.746C62.0711 169.746 62.8146 170.03 63.3447 170.598C63.8895 171.149 64.1619 171.942 64.1619 172.977V174.58C63.9852 174.58 63.8085 174.58 63.6319 174.58C63.4699 174.58 63.3005 174.58 63.1239 174.58V173.253C63.1239 172.418 62.9472 171.783 62.5938 171.349C62.2551 170.915 61.7618 170.698 61.114 170.698C60.4072 170.698 59.8918 170.932 59.5679 171.399C59.244 171.867 59.082 172.568 59.082 173.503C59.082 174.188 59.1998 174.731 59.4354 175.131C59.671 175.516 59.9655 175.816 60.3188 176.033C60.687 176.25 61.0772 176.451 61.4894 176.634C62.152 176.918 62.6895 177.219 63.1018 177.536C63.5141 177.837 63.8159 178.229 64.0073 178.713C64.1987 179.181 64.2945 179.841 64.2945 180.692C64.2945 181.694 64.1546 182.487 63.8748 183.072C63.595 183.656 63.2122 184.074 62.7263 184.324C62.2404 184.575 61.6735 184.7 61.0256 184.7Z" fill="#0C0B0B"/>
<path id="Vector_11" d="M49.7062 184.7C49.0877 184.7 48.5429 184.575 48.0717 184.324C47.6153 184.057 47.2619 183.615 47.0116 182.997C46.7613 182.362 46.6361 181.485 46.6361 180.367V179.565C46.8128 179.565 46.9895 179.565 47.1662 179.565C47.3576 179.565 47.5343 179.565 47.6963 179.565V180.442C47.6963 181.327 47.7773 182.02 47.9392 182.521C48.1159 183.022 48.3589 183.372 48.6681 183.573C48.9773 183.773 49.3307 183.873 49.7282 183.873C50.3467 183.873 50.8547 183.656 51.2522 183.222C51.6645 182.771 51.8707 181.97 51.8707 180.817C51.8707 180.049 51.7676 179.465 51.5614 179.064C51.37 178.663 51.0755 178.346 50.678 178.112C50.2804 177.878 49.7945 177.636 49.2203 177.386C48.7491 177.169 48.3221 176.918 47.9392 176.634C47.5564 176.334 47.2545 175.941 47.0337 175.457C46.8128 174.956 46.7024 174.322 46.7024 173.553C46.7024 172.702 46.8054 171.992 47.0116 171.424C47.2177 170.857 47.549 170.439 48.0055 170.172C48.4619 169.888 49.0583 169.746 49.7945 169.746C50.7516 169.746 51.4952 170.03 52.0253 170.598C52.5701 171.149 52.8425 171.942 52.8425 172.977V174.58C52.6658 174.58 52.4891 174.58 52.3124 174.58C52.1504 174.58 51.9811 174.58 51.8044 174.58V173.253C51.8044 172.418 51.6277 171.783 51.2743 171.349C50.9357 170.915 50.4424 170.698 49.7945 170.698C49.0877 170.698 48.5724 170.932 48.2484 171.399C47.9245 171.867 47.7625 172.568 47.7625 173.503C47.7625 174.188 47.8803 174.731 48.1159 175.131C48.3515 175.516 48.646 175.816 48.9994 176.033C49.3675 176.25 49.7577 176.451 50.17 176.634C50.8326 176.918 51.37 177.219 51.7823 177.536C52.1946 177.837 52.4965 178.229 52.6879 178.713C52.8793 179.181 52.975 179.841 52.975 180.692C52.975 181.694 52.8351 182.487 52.5553 183.072C52.2756 183.656 51.8927 184.074 51.4068 184.324C50.9209 184.575 50.354 184.7 49.7062 184.7Z" fill="#0C0B0B"/>
<path id="Vector_12" d="M36.2223 184.7V169.746H41.2028V170.657H37.2343V176.375H40.3496V177.337H37.2343V183.814H41.2028V184.7H36.2223Z" fill="#0C0B0B"/>
<path id="Vector_13" d="M23.5444 184.7V169.746H24.4172L28.5375 182.119V169.746H29.4305V184.7H28.5172L24.4578 172.681V184.7H23.5444Z" fill="#0C0B0B"/>
<path id="Vector_14" d="M10.8667 184.7L13.8561 169.746H15.1435L18.1111 184.7H16.9765L16.2128 181.031H12.6778L11.9359 184.7H10.8667ZM12.7433 180.323H16.1691L14.4671 171.492L12.7433 180.323Z" fill="#0C0B0B"/>
<path id="Vector_15" d="M0 184.7V169.746H3.41839C3.93082 169.746 4.36907 169.839 4.73316 170.024C5.09725 170.21 5.38043 170.53 5.5827 170.986C5.78497 171.441 5.88611 172.074 5.88611 172.884V181.436C5.88611 182.296 5.77823 182.971 5.56248 183.46C5.34672 183.932 5.04331 184.261 4.65225 184.447C4.27468 184.616 3.82968 184.7 3.31726 184.7H0ZM1.01136 183.966H3.19589C3.7218 183.966 4.13983 183.797 4.44998 183.46C4.76013 183.106 4.91521 182.44 4.91521 181.461V173.035C4.91521 172.057 4.76013 171.399 4.44998 171.062C4.13983 170.708 3.7218 170.53 3.19589 170.53H1.01136V183.966Z" fill="#0C0B0B"/>
<path id="Vector_16" d="M131.171 202.789V198.202L129.578 192.403H130.316L131.505 196.99L131.562 197.253L131.606 196.99L132.895 192.403H133.591L131.881 198.237V202.789H131.171Z" fill="#0C0B0B"/>
<path id="Vector_17" d="M111.588 202.789V193.036H110.11V192.403H113.79V193.036H112.283V202.789H111.588Z" fill="#0C0B0B"/>
<path id="Vector_18" d="M92.0272 203C91.7374 203 91.4669 202.97 91.2158 202.912C90.9646 202.865 90.7425 202.759 90.5493 202.595C90.3561 202.431 90.2016 202.197 90.0856 201.893C89.9794 201.576 89.9263 201.166 89.9263 200.662V192.403H90.6362V200.803C90.6362 201.248 90.699 201.594 90.8246 201.84C90.9598 202.074 91.1288 202.232 91.3317 202.314C91.5442 202.396 91.776 202.437 92.0272 202.437C92.2686 202.437 92.4956 202.396 92.7081 202.314C92.9206 202.232 93.0897 202.074 93.2152 201.84C93.3505 201.594 93.4181 201.248 93.4181 200.803V192.403H94.1136V200.662C94.1136 201.166 94.0556 201.576 93.9397 201.893C93.8334 202.197 93.6837 202.431 93.4905 202.595C93.307 202.759 93.0848 202.865 92.824 202.912C92.5729 202.97 92.3073 203 92.0272 203Z" fill="#0C0B0B"/>
<path id="Vector_19" d="M69.0304 202.789L71.0154 192.403H71.8702L73.8407 202.789H73.0873L72.5802 200.241H70.233L69.7404 202.789H69.0304ZM70.2764 199.749H72.5512L71.4211 193.616L70.2764 199.749Z" fill="#0C0B0B"/>
<path id="Vector_20" d="M49.7842 202.789V192.403H53.4209V193.036H50.5231V197.007H52.7979V197.675H50.5231V202.174H53.4209V202.789H49.7842Z" fill="#0C0B0B"/>
<path id="Vector_21" d="M29.4092 202.789V192.403H31.9592C32.4132 192.403 32.7899 192.538 33.0894 192.807C33.3985 193.077 33.553 193.516 33.553 194.125V195.408C33.553 195.736 33.5095 196.029 33.4226 196.287C33.3453 196.533 33.2439 196.732 33.1183 196.884C32.9734 197.048 32.8044 197.16 32.6112 197.218C32.418 197.265 32.2587 197.294 32.1331 197.306V197.271C32.3456 197.271 32.5436 197.294 32.7271 197.341C32.9107 197.388 33.0652 197.488 33.1908 197.64C33.3357 197.816 33.4468 198.027 33.524 198.273C33.6013 198.519 33.6399 198.806 33.6399 199.134V200.662C33.6399 201.26 33.5627 201.711 33.4081 202.016C33.2536 202.32 33.0411 202.525 32.7706 202.631C32.5001 202.736 32.1814 202.789 31.8143 202.789H29.4092ZM30.1191 202.279H31.6984C31.9496 202.279 32.1669 202.238 32.3504 202.156C32.534 202.074 32.674 201.916 32.7706 201.682C32.8769 201.436 32.93 201.073 32.93 200.592V199.134C32.93 198.536 32.7996 198.144 32.5388 197.956C32.278 197.757 31.9496 197.658 31.5535 197.658H30.1191V202.279ZM30.1191 197.078H31.539C31.9737 197.078 32.3021 196.943 32.5243 196.673C32.7561 196.392 32.872 196 32.872 195.496V194.266C32.872 193.809 32.7658 193.475 32.5533 193.264C32.3408 193.042 32.0896 192.931 31.7998 192.931H30.1191V197.078Z" fill="#0C0B0B"/>
</g>
</g>
</g>
</svg>
