<svg width="126" height="106" viewBox="0 0 126 106" fill="none" xmlns="http://www.w3.org/2000/svg">
<g id="&#208;&#159;&#209;&#131;&#208;&#180;&#209;&#128;&#208;&#184;">
<g id="Group 504">
<g id="Group 501">
<g id="Group 499">
<g id="Group 500">
<path id="Ellipse 6" d="M39.6552 63.7211C50.5105 63.7211 59.3105 57.5993 59.3105 50.0477C59.3105 42.4961 50.5105 36.3743 39.6552 36.3743C28.7999 36.3743 20 42.4961 20 50.0477C20 57.5993 28.7999 63.7211 39.6552 63.7211Z" fill="#FFFDFD" stroke="#0C0B0B" stroke-width="1.5" stroke-linecap="round" stroke-linejoin="round"/>
<path id="Line 17" d="M42.301 44.7302L32.4742 52.3283" stroke="#0C0B0B" stroke-width="1.5" stroke-linecap="round" stroke-linejoin="round"/>
<path id="Line 18" d="M46.9698 47.4778L41.6785 51.5687" stroke="#0C0B0B" stroke-width="1.5" stroke-linecap="round" stroke-linejoin="round"/>
<path id="Line 19" d="M20 73.5999V79.4696" stroke="#0C0B0B" stroke-width="1.5" stroke-linecap="round" stroke-linejoin="round"/>
<g id="Path 600">
<path d="M59.5 79.5C59.5 84.9533 50.5083 89.1722 39.6535 89.1722C28.7987 89.1722 20 84.7503 20 79.297" fill="#FFFDFD"/>
<path d="M59.5 79.5C59.5 84.9533 50.5083 89.1722 39.6535 89.1722C28.7987 89.1722 20 84.7503 20 79.297" stroke="#0C0B0B" stroke-width="1.5" stroke-linecap="round" stroke-linejoin="round"/>
</g>
<path id="Line 20" d="M59.5376 73.5999V79.4992" stroke="#0C0B0B" stroke-width="1.5" stroke-linecap="round" stroke-linejoin="round"/>
<path id="Path 601" d="M29.0725 71.7076C29.0725 71.7076 31.3402 68.6621 39.6621 68.6621C47.984 68.6621 50.2378 71.7076 50.2378 71.7076" stroke="#0C0B0B" stroke-width="1.5" stroke-linecap="round" stroke-linejoin="round"/>
<path id="Path 602" d="M81.3322 86.9701L78.4004 87.5119C75.9593 87.9659 73.456 87.9659 71.0148 87.5119L68.0848 86.9701C67.7531 86.8927 67.4586 86.7017 67.2517 86.4299C67.0448 86.1581 66.9385 85.8224 66.9509 85.4804V63.7524H82.4678V85.4804C82.4801 85.8226 82.3736 86.1585 82.1663 86.4303C81.9591 86.7022 81.6642 86.893 81.3322 86.9701Z" fill="#FFFDFD" stroke="#0C0B0B" stroke-width="1.5" stroke-linecap="round" stroke-linejoin="round"/>
<path id="Rectangle 432" d="M80.5226 53.6873H68.8859V63.7524H80.5226V53.6873Z" fill="#FFFDFD" stroke="#0C0B0B" stroke-width="1.5" stroke-linecap="round" stroke-linejoin="round"/>
<path id="Path 603" d="M70.6265 44.5962C71.3564 46.0039 73.7749 45.9726 76.0253 44.5265C78.2757 43.0804 79.5084 40.7701 78.7785 39.3623C78.0486 37.9546 75.63 37.9859 73.3797 39.432C71.1293 40.8781 69.8966 43.1884 70.6265 44.5962Z" fill="#BB9185" stroke="#0C0B0B" stroke-width="1.5" stroke-linecap="round" stroke-linejoin="round"/>
<path id="Line 21" d="M70.4496 44.2006V53.6855" stroke="#0C0B0B" stroke-width="1.5" stroke-linecap="round" stroke-linejoin="round"/>
<path id="Line 22" d="M78.9414 39.7665V53.6873" stroke="#0C0B0B" stroke-width="1.5" stroke-linecap="round" stroke-linejoin="round"/>
<path id="Path 604" d="M94.8431 87.8536C92.1576 87.8536 90.9526 85.6653 90.9526 82.9647L89.9783 37.9982H99.7062L98.7318 82.9647C98.7336 85.6653 97.5286 87.8536 94.8431 87.8536Z" fill="#FFFDFD" stroke="#0C0B0B" stroke-width="1.5" stroke-linecap="round" stroke-linejoin="round"/>
<path id="Path 605" d="M99.7063 37.9981H89.9801L83.2567 24.3055C82.9489 23.4577 82.9173 22.5335 83.1666 21.6666C83.416 20.7996 83.9333 20.0348 84.6437 19.4828C87.5659 17.2244 91.149 16 94.8354 16C98.5218 16 102.105 17.2244 105.027 19.4828C105.738 20.0348 106.255 20.7996 106.504 21.6666C106.754 22.5335 106.722 23.4577 106.414 24.3055L99.7063 37.9981Z" fill="#BB9185" stroke="#0C0B0B" stroke-width="1.5" stroke-linecap="round" stroke-linejoin="round"/>
<path id="Line 23" d="M96.1313 37.9981L97.449 31.1561" stroke="#0C0B0B" stroke-width="1.5" stroke-linecap="round" stroke-linejoin="round"/>
<path id="Line 24" d="M93.5566 37.9981L92.239 31.1561" stroke="#0C0B0B" stroke-width="1.5" stroke-linecap="round" stroke-linejoin="round"/>
<path id="Ellipse 7" d="M39.6552 83.4734C50.5105 83.4734 59.3105 79.0521 59.3105 73.5982C59.3105 68.1442 50.5105 63.7229 39.6552 63.7229C28.7999 63.7229 20 68.1442 20 73.5982C20 79.0521 28.7999 83.4734 39.6552 83.4734Z" fill="#BB9185" stroke="#0C0B0B" stroke-width="1.5" stroke-linecap="round" stroke-linejoin="round"/>
</g>
</g>
</g>
</g>
</g>
</svg>
