<svg width="126" height="106" viewBox="0 0 126 106" fill="none" xmlns="http://www.w3.org/2000/svg">
<g id="&#208;&#161;&#208;&#181;&#209;&#128;&#208;&#180;&#208;&#181;&#209;&#135;&#208;&#186;&#208;&#176;">
<g id="Group 495">
<g id="Group 502">
<g id="Path 594">
<path d="M74.6311 37.1877C75.0945 34.4563 74.6242 31.6559 73.2891 29.1964C71.73 26.3024 69.1008 24.0554 65.9046 22.8854C62.7084 21.7154 59.1697 21.7046 55.9657 22.855C52.7616 24.0054 50.1172 26.2362 48.5384 29.1206C46.9596 32.005 46.5573 35.3404 47.4085 38.4886C46.5627 35.3385 44.522 32.595 41.6769 30.7834C38.8318 28.9718 35.3824 28.2194 31.989 28.6703C28.5957 29.1211 25.4968 30.7435 23.2858 33.2269C21.0747 35.7103 19.9069 38.8801 20.0058 42.1294C20.0607 44.0465 20.5596 45.9286 21.4671 47.6422C22.3746 49.3559 23.6684 50.859 25.2569 52.0451L25.2033 52.059L54.0665 71.2654C54.3953 71.4841 54.7701 71.6327 55.1652 71.7011C55.5603 71.7695 55.9663 71.7559 56.3554 71.6615C56.7444 71.567 57.1073 71.3938 57.4192 71.1538C57.7311 70.9138 57.9846 70.6126 58.1622 70.2709L72.5199 42.6513L72.8818 41.9555" fill="#BB9185"/>
<path d="M74.6311 37.1877C75.0945 34.4563 74.6242 31.6559 73.2891 29.1964C71.73 26.3024 69.1008 24.0554 65.9046 22.8854C62.7084 21.7154 59.1697 21.7046 55.9657 22.855C52.7616 24.0054 50.1172 26.2362 48.5384 29.1206C46.9596 32.005 46.5573 35.3404 47.4085 38.4886C46.5627 35.3385 44.522 32.595 41.6769 30.7834C38.8318 28.9718 35.3824 28.2194 31.989 28.6703C28.5957 29.1211 25.4968 30.7435 23.2858 33.2269C21.0747 35.7103 19.9069 38.8801 20.0058 42.1294C20.0607 44.0465 20.5596 45.9286 21.4671 47.6422C22.3746 49.3559 23.6684 50.859 25.2569 52.0451L25.2033 52.059L54.0665 71.2654C54.3953 71.4841 54.7701 71.6327 55.1652 71.7011C55.5603 71.7695 55.9663 71.7559 56.3554 71.6615C56.7444 71.567 57.1073 71.3938 57.4192 71.1538C57.7311 70.9138 57.9846 70.6126 58.1622 70.2709L72.5199 42.6513L72.8818 41.9555" stroke="#0C0B0B" stroke-width="1.5" stroke-linecap="round" stroke-linejoin="round"/>
</g>
<g id="Path 595">
<path d="M62.0258 71.8735L66.8761 82.0217C67.0421 82.3682 67.2851 82.6766 67.5884 82.9257C67.8918 83.1749 68.2483 83.3589 68.6335 83.4652C69.0188 83.5715 69.4237 83.5975 69.8206 83.5415C70.2174 83.4856 70.5968 83.3489 70.9328 83.1409L100.44 64.832L100.387 64.8166C102.015 63.6799 103.36 62.2173 104.326 60.5324C105.291 58.8475 105.855 56.9816 105.975 55.0671C106.179 51.8259 105.117 48.6272 102.992 46.0819C100.867 43.5366 97.8277 41.8232 94.4554 41.2688C91.0832 40.7145 87.6138 41.3581 84.71 43.0767C81.8063 44.7953 79.6716 47.4686 78.7137 50.5858C79.6726 47.4657 79.3851 44.1197 77.9061 41.1881C76.4271 38.2566 73.8605 35.9455 70.6976 34.697C67.5347 33.4486 63.9975 33.3505 60.7632 34.4216C57.5288 35.4927 54.8244 37.6577 53.1674 40.5023C52.1883 42.18 51.6099 44.0413 51.4731 45.9546C51.3362 47.8679 51.6443 49.7863 52.3755 51.5741L52.322 51.5602L59.6858 66.9626" fill="#FFFDFD"/>
<path d="M62.0258 71.8735L66.8761 82.0217C67.0421 82.3682 67.2851 82.6766 67.5884 82.9257C67.8918 83.1749 68.2483 83.3589 68.6335 83.4652C69.0188 83.5715 69.4237 83.5975 69.8206 83.5415C70.2174 83.4856 70.5968 83.3489 70.9328 83.1409L100.44 64.832L100.387 64.8166C102.015 63.6799 103.36 62.2173 104.326 60.5324C105.291 58.8475 105.855 56.9816 105.975 55.0671C106.179 51.8259 105.117 48.6272 102.992 46.0819C100.867 43.5366 97.8277 41.8232 94.4554 41.2688C91.0832 40.7145 87.6138 41.3581 84.71 43.0767C81.8063 44.7953 79.6716 47.4686 78.7137 50.5858C79.6726 47.4657 79.3851 44.1197 77.9061 41.1881C76.4271 38.2566 73.8605 35.9455 70.6976 34.697C67.5347 33.4486 63.9975 33.3505 60.7632 34.4216C57.5288 35.4927 54.8244 37.6577 53.1674 40.5023C52.1883 42.18 51.6099 44.0413 51.4731 45.9546C51.3362 47.8679 51.6443 49.7863 52.3755 51.5741L52.322 51.5602L59.6858 66.9626" stroke="#0C0B0B" stroke-width="1.5" stroke-linecap="round" stroke-linejoin="round"/>
</g>
</g>
</g>
</g>
</svg>
