<svg width="126" height="106" viewBox="0 0 126 106" fill="none" xmlns="http://www.w3.org/2000/svg">
<g id="&#208;&#151;&#208;&#176;&#208;&#185;&#209;&#135;&#208;&#184;&#208;&#186;">
<g id="Group 497">
<g id="Group 503">
<g id="Path 598">
<path d="M84.818 47C85.2461 40.7909 84.9177 34.5299 83.8457 28.4622C83.2793 25.4351 82.421 22.5198 81.2925 19.7901C80.2436 17.3206 78.4612 11.9161 75.8539 13.1922C73.801 14.193 73.3997 17.4832 73.2411 20.4482C73.052 23.8227 72.8771 26.6311 73.1158 30" fill="#FFFDFD"/>
<path d="M84.818 47C85.2461 40.7909 84.9177 34.5299 83.8457 28.4622C83.2793 25.4351 82.421 22.5198 81.2925 19.7901C80.2436 17.3206 78.4612 11.9161 75.8539 13.1922C73.801 14.193 73.3997 17.4832 73.2411 20.4482C73.052 23.8227 72.8771 26.6311 73.1158 30" stroke="#0C0B0B" stroke-width="1.5" stroke-linecap="round" stroke-linejoin="round"/>
</g>
<g id="Path 596">
<path d="M66.8043 68.206C73.1827 70.8592 76.1198 74.3124 75.532 79.3694C74.8883 84.9715 71.8439 89.5428 65.7402 91.4015C54.0991 94.9366 36.6974 92.7374 30.1689 83.5165C22.205 72.2714 25.5626 55.8706 41.4775 49.6191C45.4709 47.8716 49.8641 46.9196 54.3361 46.8326C58.808 46.7457 63.2459 47.5261 67.3257 49.1168C68.9219 49.7475 70.6897 50.4713 71.4449 48.1865C75.1544 36.9935 88.1986 37.6298 97.7715 43.163C100.474 44.7932 102.634 47.0115 104.034 49.595C108.076 56.8046 106.072 64.1333 96.2804 66.3399L92.1183 67.2702C90.1359 72.6658 88.1471 78.0614 86.139 83.5295C87.3479 84.2321 88.4816 85.0272 89.5266 85.9055C91.5734 87.9763 90.5993 90.8936 87.4906 90.8638C81.6379 90.808 67.5488 90.8638 67.5488 90.8638" fill="#FFFDFD"/>
<path d="M66.8043 68.206C73.1827 70.8592 76.1198 74.3124 75.532 79.3694C74.8883 84.9715 71.8439 89.5428 65.7402 91.4015C54.0991 94.9366 36.6974 92.7374 30.1689 83.5165C22.205 72.2714 25.5626 55.8706 41.4775 49.6191C45.4709 47.8716 49.8641 46.9196 54.3361 46.8326C58.808 46.7457 63.2459 47.5261 67.3257 49.1168C68.9219 49.7475 70.6897 50.4713 71.4449 48.1865C75.1544 36.9935 88.1986 37.6298 97.7715 43.163C100.474 44.7932 102.634 47.0115 104.034 49.595C108.076 56.8046 106.072 64.1333 96.2805 66.3399L92.1183 67.2702C90.1359 72.6658 88.1471 78.0614 86.139 83.5295C87.3479 84.2321 88.4816 85.0272 89.5266 85.9055C91.5734 87.9763 90.5993 90.8936 87.4906 90.8638C81.6379 90.808 67.5488 90.8638 67.5488 90.8638" stroke="#0C0B0B" stroke-width="1.5" stroke-linecap="round" stroke-linejoin="round"/>
</g>
<g id="Path 597">
<path d="M79.2135 39.3544C77.71 34.6246 75.318 30.142 72.1336 26.0868C70.5182 24.0883 68.6018 22.2862 66.4353 20.7284C64.4572 19.3311 60.6812 16.0659 58.1217 18.0548C56.1136 19.6232 56.7057 22.2075 57.4781 24.457C60.2672 32.5094 64.852 39.399 72.9982 43.9927" fill="#BB9185"/>
<path d="M79.2135 39.3544C77.71 34.6246 75.318 30.142 72.1336 26.0868C70.5182 24.0883 68.6018 22.2862 66.4353 20.7284C64.4572 19.3311 60.6812 16.0659 58.1217 18.0548C56.1136 19.6232 56.7057 22.2075 57.4781 24.457C60.2672 32.5094 64.852 39.399 72.9982 43.9927" stroke="#0C0B0B" stroke-width="1.5" stroke-linecap="round" stroke-linejoin="round"/>
</g>
<g id="Path 599">
<path d="M26.2878 65.4132C25.1204 65.4354 23.9825 65.7356 22.9987 66.281C22.0149 66.8264 21.223 67.5959 20.7097 68.5054C19.7724 70.5227 19.7632 72.7749 20.6839 74.7978C21.0562 75.7036 21.8237 76.4464 22.8212 76.8664C23.8187 77.2864 24.9665 77.35 26.0175 77.0435" fill="#BB9185"/>
<path d="M26.2878 65.4132C25.1204 65.4354 23.9825 65.7356 22.9987 66.281C22.0149 66.8264 21.223 67.5959 20.7097 68.5054C19.7724 70.5227 19.7632 72.7749 20.6839 74.7978C21.0562 75.7036 21.8237 76.4464 22.8212 76.8664C23.8187 77.2864 24.9665 77.35 26.0175 77.0435" stroke="#0C0B0B" stroke-width="1.5" stroke-linecap="round" stroke-linejoin="round"/>
</g>
</g>
</g>
</g>
</svg>
