<svg width="28" height="28" viewBox="0 0 28 28" fill="none" xmlns="http://www.w3.org/2000/svg">
<rect width="28" height="28" fill="#F5F5F5"/>
<g id="Other elements">
<path d="M-1769 -2050C-1769 -2051.1 -1768.1 -2052 -1767 -2052H1325C1326.1 -2052 1327 -2051.1 1327 -2050V2407C1327 2408.1 1326.1 2409 1325 2409H-1767C-1768.1 2409 -1769 2408.1 -1769 2407V-2050Z" fill="#FFFDFD"/>
<path d="M-1767 -2051H1325V-2053H-1767V-2051ZM1326 -2050V2407H1328V-2050H1326ZM1325 2408H-1767V2410H1325V2408ZM-1768 2407V-2050H-1770V2407H-1768ZM-1767 2408C-1767.55 2408 -1768 2407.55 -1768 2407H-1770C-1770 2408.66 -1768.66 2410 -1767 2410V2408ZM1326 2407C1326 2407.55 1325.55 2408 1325 2408V2410C1326.66 2410 1328 2408.66 1328 2407H1326ZM1325 -2051C1325.55 -2051 1326 -2050.55 1326 -2050H1328C1328 -2051.66 1326.66 -2053 1325 -2053V-2051ZM-1767 -2053C-1768.66 -2053 -1770 -2051.66 -1770 -2050H-1768C-1768 -2050.55 -1767.55 -2051 -1767 -2051V-2053Z" fill="black" fill-opacity="0.1"/>
<g id="Input">
<rect x="-69.5" y="-19.5" width="117" height="71" rx="4.5" fill="#F8F4F3"/>
<rect x="-69.5" y="-19.5" width="117" height="71" rx="4.5" stroke="#9747FF" stroke-dasharray="10 5"/>
<g id="State=Active">
<rect width="28" height="28" rx="4" fill="#FFFDFD"/>
<path id="Line" d="M7.00004 13.8897L12.0825 18.9722L21.9722 9.08252" stroke="#0C0B0B" stroke-width="1.5" stroke-linecap="round" stroke-linejoin="round"/>
</g>
</g>
</g>
</svg>
