<svg width="28" height="28" viewBox="0 0 28 28" fill="none" xmlns="http://www.w3.org/2000/svg">
<g id="Heart">
<path id="Heart (Stroke)" fill-rule="evenodd" clip-rule="evenodd" d="M23.092 6.14669C20.8506 3.78444 17.2364 3.78444 14.995 6.14669C14.4541 6.7167 13.5459 6.7167 13.005 6.14669C10.7635 3.78444 7.14938 3.78444 4.90792 6.14669C2.64178 8.53496 2.64178 12.4252 4.90792 14.8134L12.0958 22.3886C13.1309 23.4795 14.8691 23.4795 15.9042 22.3886L23.092 14.8134C25.3582 12.4252 25.3582 8.53495 23.092 6.14669ZM14 4.66691C16.9477 1.85552 21.5198 1.94726 24.3615 4.94213C27.2684 8.00564 27.2684 12.9545 24.3615 16.018L17.1736 23.5932C15.4485 25.4113 12.5515 25.4113 10.8263 23.5932L3.63845 16.018C0.7316 12.9545 0.731598 8.00564 3.63845 4.94214C6.48019 1.94726 11.0522 1.85552 14 4.66691Z" fill="#0C0B0B"/>
</g>
</svg>
