<svg width="18" height="18" viewBox="0 0 18 18" fill="none" xmlns="http://www.w3.org/2000/svg">
<path d="M9.0002 2.2002C11.2002 2.2002 11.5002 2.2002 12.4002 2.2002C13.2002 2.2002 13.6002 2.4002 13.9002 2.5002C14.3002 2.7002 14.6002 2.8002 14.9002 3.1002C15.2002 3.4002 15.4002 3.7002 15.5002 4.1002C15.6002 4.4002 15.7002 4.8002 15.8002 5.6002C15.8002 6.5002 15.8002 6.7002 15.8002 9.0002C15.8002 11.3002 15.8002 11.5002 15.8002 12.4002C15.8002 13.2002 15.6002 13.6002 15.5002 13.9002C15.3002 14.3002 15.2002 14.6002 14.9002 14.9002C14.6002 15.2002 14.3002 15.4002 13.9002 15.5002C13.6002 15.6002 13.2002 15.7002 12.4002 15.8002C11.5002 15.8002 11.3002 15.8002 9.0002 15.8002C6.7002 15.8002 6.5002 15.8002 5.6002 15.8002C4.8002 15.8002 4.4002 15.6002 4.1002 15.5002C3.7002 15.3002 3.4002 15.2002 3.1002 14.9002C2.8002 14.6002 2.6002 14.3002 2.5002 13.9002C2.4002 13.6002 2.3002 13.2002 2.2002 12.4002C2.2002 11.5002 2.2002 11.3002 2.2002 9.0002C2.2002 6.7002 2.2002 6.5002 2.2002 5.6002C2.2002 4.8002 2.4002 4.4002 2.5002 4.1002C2.7002 3.7002 2.8002 3.4002 3.1002 3.1002C3.4002 2.8002 3.7002 2.6002 4.1002 2.5002C4.4002 2.4002 4.8002 2.3002 5.6002 2.2002C6.5002 2.2002 6.8002 2.2002 9.0002 2.2002ZM9.0002 0.700195C6.7002 0.700195 6.5002 0.700195 5.6002 0.700195C4.7002 0.700195 4.1002 0.900196 3.6002 1.1002C3.1002 1.3002 2.6002 1.6002 2.1002 2.1002C1.6002 2.6002 1.4002 3.0002 1.1002 3.6002C0.900196 4.1002 0.800195 4.7002 0.700195 5.6002C0.700195 6.5002 0.700195 6.8002 0.700195 9.0002C0.700195 11.3002 0.700195 11.5002 0.700195 12.4002C0.700195 13.3002 0.900196 13.9002 1.1002 14.4002C1.3002 14.9002 1.6002 15.4002 2.1002 15.9002C2.6002 16.4002 3.0002 16.6002 3.6002 16.9002C4.1002 17.1002 4.7002 17.2002 5.6002 17.3002C6.5002 17.3002 6.8002 17.3002 9.0002 17.3002C11.2002 17.3002 11.5002 17.3002 12.4002 17.3002C13.3002 17.3002 13.9002 17.1002 14.4002 16.9002C14.9002 16.7002 15.4002 16.4002 15.9002 15.9002C16.4002 15.4002 16.6002 15.0002 16.9002 14.4002C17.1002 13.9002 17.2002 13.3002 17.3002 12.4002C17.3002 11.5002 17.3002 11.2002 17.3002 9.0002C17.3002 6.8002 17.3002 6.5002 17.3002 5.6002C17.3002 4.7002 17.1002 4.1002 16.9002 3.6002C16.7002 3.1002 16.4002 2.6002 15.9002 2.1002C15.4002 1.6002 15.0002 1.4002 14.4002 1.1002C13.9002 0.900196 13.3002 0.800195 12.4002 0.700195C11.5002 0.700195 11.3002 0.700195 9.0002 0.700195Z" fill="#FFFDFD"/>
<path d="M9.0002 4.7002C6.6002 4.7002 4.7002 6.6002 4.7002 9.0002C4.7002 11.4002 6.6002 13.3002 9.0002 13.3002C11.4002 13.3002 13.3002 11.4002 13.3002 9.0002C13.3002 6.6002 11.4002 4.7002 9.0002 4.7002ZM9.0002 11.8002C7.5002 11.8002 6.2002 10.6002 6.2002 9.0002C6.2002 7.5002 7.4002 6.2002 9.0002 6.2002C10.5002 6.2002 11.8002 7.4002 11.8002 9.0002C11.8002 10.5002 10.5002 11.8002 9.0002 11.8002Z" fill="#FFFDFD"/>
<path d="M13.4002 5.6002C13.9525 5.6002 14.4002 5.15248 14.4002 4.6002C14.4002 4.04791 13.9525 3.6002 13.4002 3.6002C12.8479 3.6002 12.4002 4.04791 12.4002 4.6002C12.4002 5.15248 12.8479 5.6002 13.4002 5.6002Z" fill="#FFFDFD"/>
</svg>
