<svg width="174" height="56" viewBox="0 0 174 56" fill="none" xmlns="http://www.w3.org/2000/svg">
<g id="Logo Danessa Myricks MINI">
<g id="Group 283">
<path id="IMG_2438-removebg 1 (Traced)" fill-rule="evenodd" clip-rule="evenodd" d="M23.118 0.158079C21.5324 0.672392 20.3976 1.76308 18.9333 4.18039C17.3219 6.84043 16.4677 9.34767 15.9355 12.9785C15.698 14.5992 15.6495 16.1572 15.6443 22.3361L15.6379 29.7494L14.8218 29.7533C13.8332 29.7582 12.5934 30.2419 10.8693 31.2956C9.17676 32.3302 5.3409 36.1467 3.38452 38.7428C0.988232 41.9226 -0.002444 44.1518 4.52682e-06 46.3586C0.00147364 47.6757 0.303623 48.483 1.01827 49.0799C2.23339 50.095 3.61109 50.0587 5.83468 48.9535C8.40335 47.6767 11.2507 45.1108 14.6482 41.0113C15.5346 39.9419 16.3495 38.9692 16.459 38.8499C16.7122 38.5739 17.1275 40.6902 17.9167 46.2776C18.7113 51.9035 19.0631 53.5733 19.7317 54.8912C20.0799 55.5776 20.3953 56 20.5595 56C20.9049 56 20.8469 55.2595 19.797 46.2776C19.3543 42.4899 18.9206 38.4477 18.8333 37.2948L18.6746 35.1987L19.5915 33.9894C22.5075 30.1432 26.108 22.1554 27.4873 16.4721C28.7273 11.3631 28.9416 9.96147 28.9416 6.96374C28.9416 4.51629 28.8982 4.04444 28.6006 3.25465C28.226 2.26103 26.9536 0.82714 26.0218 0.348799C25.2923 -0.0256745 23.9553 -0.1135 23.118 0.158079ZM25.3989 3.48977C26.0445 4.25136 26.2494 5.40168 26.2375 8.19832C26.2198 12.3441 25.2149 17.5918 23.7213 21.3375C22.3343 24.816 19.0087 30.4707 18.5912 30.0605C18.5385 30.0087 18.3424 29.3889 18.1557 28.6832C17.713 27.0108 17.6887 24.6069 18.0543 18.6499C18.4368 12.418 18.8927 10.1853 20.4367 6.98302C21.7491 4.26141 22.9672 3.01484 24.3157 3.0137C24.8674 3.01322 25.0708 3.1025 25.3989 3.48977ZM27.1016 23.3085C26.7835 23.547 26.7373 24.2869 26.4877 33.1524C26.2859 40.3227 26.0373 46.691 25.9123 47.898C25.8285 48.7056 25.8682 48.8613 26.3346 49.5581C26.863 50.3476 27.4883 50.6666 28.2306 50.5258C28.5324 50.4686 28.5955 50.3113 28.6899 49.3813C28.866 47.6467 29.7186 43.6323 30.4301 41.188C31.5473 37.3494 33.3062 33.183 34.7799 30.8839C35.5768 29.6407 35.8114 29.5099 36.159 30.1142C36.3208 30.3953 36.3688 32.0378 36.3688 37.2844C36.3688 44.6459 36.4219 45.1667 37.2362 45.8025C37.4566 45.9748 37.8859 46.1156 38.1899 46.1156C38.8275 46.1156 38.7292 46.2877 39.811 43.2799C41.9123 37.4377 45.3876 31.9071 46.169 33.1621C46.2277 33.2564 46.414 34.4414 46.5826 35.7953C47.3048 41.5872 48.6101 43.9483 51.4834 44.6595C52.0285 44.7943 52.4894 44.798 53.1703 44.6731C54.4724 44.4341 56.0387 43.7159 56.0387 43.3577C56.0387 42.9803 55.5845 42.8797 53.8706 42.8771C53.0425 42.8758 52.2152 42.7826 51.9117 42.6565C51.3349 42.4167 50.3215 41.3819 49.9327 40.6356C49.5326 39.8677 49.0292 37.8773 48.8597 36.3932C48.7732 35.6357 48.5853 33.9586 48.4423 32.6663C48.0514 29.1348 47.7275 28.6241 46.0015 28.8172C44.2745 29.0104 42.4018 31.6286 40.1188 37.0414C39.6866 38.0663 39.2796 38.9666 39.2143 39.0421C39.0723 39.2065 38.9406 37.2177 38.7329 31.7751C38.6481 29.547 38.4967 27.4381 38.3968 27.0887C38.2969 26.7392 38.0074 26.2471 37.7535 25.995C36.3858 24.6372 34.3207 26.3304 31.9887 30.7218C30.9869 32.608 30.6863 33.3094 29.6608 36.1502L28.9591 38.0946L28.9527 35.664C28.9491 34.3272 29.0547 31.7751 29.1874 29.9926C29.5387 25.2754 29.5199 24.3794 29.0617 23.9521C28.7637 23.6742 27.6662 23.106 27.4273 23.106C27.3967 23.106 27.2502 23.1972 27.1016 23.3085ZM15.604 32.7473C16.0073 33.4647 16.0524 33.6875 15.9972 34.6918C15.8805 36.8181 14.7542 38.5404 11.2467 41.9565C7.31376 45.7868 5.24296 47.3033 4.06456 47.216C3.16628 47.1494 2.81059 46.6297 2.79231 45.3572C2.78006 44.4978 2.88029 44.1638 3.59804 42.6724C4.63654 40.5144 5.36783 39.4494 7.13142 37.5268C9.58403 34.8533 12.3243 32.5848 13.6971 32.0914C14.7467 31.7142 15.0891 31.832 15.604 32.7473Z" fill="#0C0B0B"/>
<g id="Group 282">
<path id="Vector" d="M171.635 36.4447C171.187 36.4447 170.793 36.3548 170.452 36.1752C170.122 35.9835 169.866 35.6661 169.685 35.2229C169.504 34.7678 169.413 34.139 169.413 33.3365V32.7616C169.541 32.7616 169.669 32.7616 169.797 32.7616C169.935 32.7616 170.063 32.7616 170.18 32.7616V33.3904C170.18 34.0252 170.239 34.5223 170.356 34.8816C170.484 35.2409 170.66 35.4924 170.883 35.6362C171.107 35.7799 171.363 35.8518 171.651 35.8518C172.098 35.8518 172.466 35.6961 172.754 35.3846C173.052 35.0612 173.201 34.4863 173.201 33.6599C173.201 33.1089 173.127 32.6897 172.977 32.4022C172.839 32.1148 172.626 31.8872 172.338 31.7195C172.05 31.5518 171.699 31.3781 171.283 31.1985C170.942 31.0428 170.633 30.8631 170.356 30.6595C170.079 30.4439 169.861 30.1624 169.701 29.8151C169.541 29.4557 169.461 29.0006 169.461 28.4496C169.461 27.8388 169.536 27.3297 169.685 26.9225C169.834 26.5153 170.074 26.2158 170.404 26.0242C170.734 25.8206 171.166 25.7188 171.699 25.7188C172.391 25.7188 172.929 25.9224 173.313 26.3296C173.707 26.7249 173.904 27.2938 173.904 28.0364V29.1863C173.777 29.1863 173.649 29.1863 173.521 29.1863C173.404 29.1863 173.281 29.1863 173.153 29.1863V28.234C173.153 27.6352 173.025 27.18 172.77 26.8686C172.525 26.5572 172.168 26.4015 171.699 26.4015C171.187 26.4015 170.814 26.5692 170.58 26.9045C170.345 27.2399 170.228 27.743 170.228 28.4137C170.228 28.9048 170.313 29.2941 170.484 29.5815C170.654 29.857 170.867 30.0726 171.123 30.2283C171.39 30.384 171.672 30.5277 171.97 30.6595C172.45 30.8631 172.839 31.0787 173.137 31.3063C173.436 31.5219 173.654 31.8034 173.793 32.1507C173.931 32.4861 174 32.9592 174 33.57C174 34.2887 173.899 34.8576 173.697 35.2768C173.494 35.6961 173.217 35.9955 172.865 36.1752C172.514 36.3548 172.104 36.4447 171.635 36.4447Z" fill="#0C0B0B"/>
<path id="Vector_2" d="M164.996 36.4447L162.527 30.8548L164.921 25.7188H165.718L163.28 30.8911L165.809 36.4447H164.996ZM161.549 36.4447V25.7188H162.286V36.4447H161.549Z" fill="#0C0B0B"/>
<path id="Vector_3" d="M154.832 36.4447C154.42 36.4447 154.053 36.3861 153.73 36.2691C153.417 36.1638 153.167 35.9356 152.981 35.5845C152.795 35.2217 152.702 34.6775 152.702 33.9519V28.0184C152.702 27.3513 152.795 26.854 152.981 26.5263C153.167 26.1986 153.422 25.9821 153.745 25.8767C154.078 25.7714 154.445 25.7188 154.846 25.7188C155.267 25.7188 155.635 25.7773 155.948 25.8943C156.261 25.9996 156.506 26.2161 156.682 26.5438C156.868 26.8715 156.961 27.363 156.961 28.0184V29.7388H156.256V28.0184C156.256 27.5035 156.193 27.1231 156.065 26.8774C155.948 26.6316 155.782 26.4677 155.566 26.3858C155.36 26.3039 155.121 26.2629 154.846 26.2629C154.572 26.2629 154.327 26.3039 154.112 26.3858C153.896 26.4677 153.725 26.6316 153.598 26.8774C153.48 27.1231 153.422 27.5035 153.422 28.0184V34.145C153.422 34.6599 153.48 35.0403 153.598 35.286C153.725 35.5318 153.896 35.6957 154.112 35.7776C154.327 35.8595 154.572 35.9005 154.846 35.9005C155.121 35.9005 155.36 35.8595 155.566 35.7776C155.782 35.6957 155.948 35.5318 156.065 35.286C156.193 35.0403 156.256 34.6599 156.256 34.145V32.7055H156.961V33.9519C156.961 34.6892 156.868 35.2334 156.682 35.5845C156.506 35.9356 156.256 36.1638 155.933 36.2691C155.62 36.3861 155.253 36.4447 154.832 36.4447Z" fill="#0C0B0B"/>
<path id="Vector_4" d="M147.459 36.4447V25.7188H148.115V36.4447H147.459Z" fill="#0C0B0B"/>
<path id="Vector_5" d="M138.612 36.4447V25.7188H141.229C141.7 25.7188 142.087 25.8579 142.391 26.1362C142.695 26.4145 142.846 26.8682 142.846 27.4973V29.2396C142.846 29.8809 142.69 30.3648 142.376 30.6915C142.072 31.0182 141.66 31.1876 141.141 31.1997V31.1815C141.464 31.1815 141.705 31.3146 141.861 31.5808C142.018 31.8349 142.16 32.2281 142.288 32.7605L143.199 36.4447H142.405L141.567 32.8149C141.479 32.464 141.366 32.1434 141.229 31.853C141.092 31.5626 140.871 31.4175 140.567 31.4175H139.347V36.4447H138.612ZM139.347 30.7641H140.817C141.308 30.7641 141.651 30.625 141.847 30.3467C142.043 30.0684 142.141 29.6631 142.141 29.1307V27.6425C142.141 27.1827 142.048 26.8379 141.861 26.608C141.675 26.3782 141.386 26.2632 140.994 26.2632H139.347V30.7641Z" fill="#0C0B0B"/>
<path id="Vector_6" d="M132.036 36.33V31.6438L130.306 25.7188H131.109L132.398 30.4049L132.461 30.6742L132.508 30.4049L133.908 25.7188H134.663L132.807 31.6797V36.33H132.036Z" fill="#0C0B0B"/>
<path id="Vector_7" d="M119.935 36.4447V25.7188H120.824L123.048 34.9202L125.335 25.7188H126.16V36.4447H125.462V27.5881L123.349 36.4447H122.762L120.649 27.5881V36.4447H119.935Z" fill="#0C0B0B"/>
<path id="Vector_8" d="M105.845 36.4447L108.009 25.7188H108.94L111.088 36.4447H110.267L109.714 33.8131H107.156L106.619 36.4447H105.845ZM107.203 33.3049H109.682L108.451 26.971L107.203 33.3049Z" fill="#0C0B0B"/>
<path id="Vector_9" d="M100.203 36.4447C99.755 36.4447 99.3608 36.3548 99.0198 36.1752C98.6895 35.9835 98.4337 35.6661 98.2526 35.2229C98.0714 34.7678 97.9808 34.139 97.9808 33.3365V32.7616C98.1087 32.7616 98.2366 32.7616 98.3644 32.7616C98.503 32.7616 98.6308 32.7616 98.7481 32.7616V33.3904C98.7481 34.0252 98.8067 34.5223 98.9239 34.8816C99.0518 35.2409 99.2276 35.4924 99.4514 35.6362C99.6751 35.7799 99.9309 35.8518 100.219 35.8518C100.666 35.8518 101.034 35.6961 101.321 35.3846C101.62 35.0612 101.769 34.4863 101.769 33.6599C101.769 33.1089 101.694 32.6897 101.545 32.4022C101.407 32.1148 101.194 31.8872 100.906 31.7195C100.618 31.5518 100.267 31.3781 99.851 31.1985C99.51 31.0428 99.2009 30.8631 98.9239 30.6595C98.6468 30.4439 98.4284 30.1624 98.2685 29.8151C98.1087 29.4557 98.0288 29.0006 98.0288 28.4496C98.0288 27.8388 98.1034 27.3297 98.2526 26.9225C98.4017 26.5153 98.6415 26.2158 98.9718 26.0242C99.3022 25.8206 99.7337 25.7188 100.267 25.7188C100.959 25.7188 101.497 25.9224 101.881 26.3296C102.275 26.7249 102.472 27.2938 102.472 28.0364V29.1863C102.344 29.1863 102.217 29.1863 102.089 29.1863C101.971 29.1863 101.849 29.1863 101.721 29.1863V28.234C101.721 27.6352 101.593 27.18 101.337 26.8686C101.092 26.5572 100.735 26.4015 100.267 26.4015C99.755 26.4015 99.3821 26.5692 99.1477 26.9045C98.9132 27.2399 98.796 27.743 98.796 28.4137C98.796 28.9048 98.8813 29.2941 99.0518 29.5815C99.2223 29.857 99.4354 30.0726 99.6911 30.2283C99.9575 30.384 100.24 30.5277 100.538 30.6595C101.018 30.8631 101.407 31.0787 101.705 31.3063C102.003 31.5219 102.222 31.8034 102.36 32.1507C102.499 32.4861 102.568 32.9592 102.568 33.57C102.568 34.2887 102.467 34.8576 102.265 35.2768C102.062 35.6961 101.785 35.9955 101.433 36.1752C101.082 36.3548 100.671 36.4447 100.203 36.4447Z" fill="#0C0B0B"/>
<path id="Vector_10" d="M92.0108 36.4447C91.5633 36.4447 91.169 36.3548 90.828 36.1752C90.4977 35.9835 90.2419 35.6661 90.0608 35.2229C89.8796 34.7678 89.7891 34.139 89.7891 33.3365V32.7616C89.9169 32.7616 90.0448 32.7616 90.1727 32.7616C90.3112 32.7616 90.4391 32.7616 90.5563 32.7616V33.3904C90.5563 34.0252 90.6149 34.5223 90.7321 34.8816C90.86 35.2409 91.0358 35.4924 91.2596 35.6362C91.4834 35.7799 91.7391 35.8518 92.0268 35.8518C92.4744 35.8518 92.842 35.6961 93.1297 35.3846C93.4281 35.0612 93.5773 34.4863 93.5773 33.6599C93.5773 33.1089 93.5027 32.6897 93.3535 32.4022C93.2149 32.1148 93.0018 31.8872 92.7141 31.7195C92.4264 31.5518 92.0748 31.3781 91.6592 31.1985C91.3182 31.0428 91.0092 30.8631 90.7321 30.6595C90.4551 30.4439 90.2366 30.1624 90.0768 29.8151C89.9169 29.4557 89.837 29.0006 89.837 28.4496C89.837 27.8388 89.9116 27.3297 90.0608 26.9225C90.21 26.5153 90.4497 26.2158 90.7801 26.0242C91.1104 25.8206 91.542 25.7188 92.0748 25.7188C92.7674 25.7188 93.3055 25.9224 93.6891 26.3296C94.0834 26.7249 94.2805 27.2938 94.2805 28.0364V29.1863C94.1527 29.1863 94.0248 29.1863 93.8969 29.1863C93.7797 29.1863 93.6572 29.1863 93.5293 29.1863V28.234C93.5293 27.6352 93.4014 27.18 93.1457 26.8686C92.9006 26.5572 92.5436 26.4015 92.0748 26.4015C91.5633 26.4015 91.1903 26.5692 90.9559 26.9045C90.7215 27.2399 90.6042 27.743 90.6042 28.4137C90.6042 28.9048 90.6895 29.2941 90.86 29.5815C91.0305 29.857 91.2436 30.0726 91.4993 30.2283C91.7657 30.384 92.0481 30.5277 92.3465 30.6595C92.826 30.8631 93.2149 31.0787 93.5133 31.3063C93.8117 31.5219 94.0301 31.8034 94.1687 32.1507C94.3072 32.4861 94.3764 32.9592 94.3764 33.57C94.3764 34.2887 94.2752 34.8576 94.0728 35.2768C93.8703 35.6961 93.5932 35.9955 93.2416 36.1752C92.8899 36.3548 92.4797 36.4447 92.0108 36.4447Z" fill="#0C0B0B"/>
<path id="Vector_11" d="M82.2527 36.4447V25.7188H85.8571V26.3721H82.985V30.4737H85.2396V31.1634H82.985V35.8094H85.8571V36.4447H82.2527Z" fill="#0C0B0B"/>
<path id="Vector_12" d="M73.0779 36.4447V25.7188H73.7095L76.6913 34.5935V25.7188H77.3376V36.4447H76.6766L73.7389 27.824V36.4447H73.0779Z" fill="#0C0B0B"/>
<path id="Vector_13" d="M63.9031 36.4447L66.0665 25.7188H66.9982L69.1458 36.4447H68.3247L67.772 33.8131H65.2138L64.6769 36.4447H63.9031ZM65.2611 33.3049H67.7404L66.5086 26.971L65.2611 33.3049Z" fill="#0C0B0B"/>
<path id="Vector_14" d="M56.0391 36.4447V25.7188H58.5129C58.8838 25.7188 59.2009 25.7853 59.4644 25.9184C59.7279 26.0515 59.9328 26.2814 60.0792 26.608C60.2256 26.9347 60.2988 27.3884 60.2988 27.9692V34.1035C60.2988 34.7205 60.2207 35.2045 60.0646 35.5554C59.9084 35.8941 59.6889 36.1301 59.4058 36.2632C59.1326 36.3842 58.8106 36.4447 58.4397 36.4447H56.0391ZM56.771 35.9183H58.3519C58.7325 35.9183 59.035 35.7974 59.2595 35.5554C59.4839 35.3013 59.5961 34.8234 59.5961 34.1216V28.0781C59.5961 27.3763 59.4839 26.9045 59.2595 26.6625C59.035 26.4084 58.7325 26.2814 58.3519 26.2814H56.771V35.9183Z" fill="#0C0B0B"/>
<path id="Vector_15" d="M150.966 49.4194V46.1296L149.813 41.9702H150.348L151.207 45.2599L151.249 45.449L151.281 45.2599L152.214 41.9702H152.717L151.48 46.1548V49.4194H150.966Z" fill="#0C0B0B"/>
<path id="Vector_16" d="M136.794 49.4194V42.424H135.724V41.9702H138.388V42.424H137.297V49.4194H136.794Z" fill="#0C0B0B"/>
<path id="Vector_17" d="M122.638 49.5706C122.428 49.5706 122.233 49.5496 122.051 49.5076C121.869 49.474 121.708 49.3984 121.569 49.2807C121.429 49.1631 121.317 48.995 121.233 48.7765C121.156 48.5497 121.118 48.2556 121.118 47.8942V41.9702H121.632V47.9951C121.632 48.3144 121.677 48.5623 121.768 48.7387C121.866 48.9068 121.988 49.0202 122.135 49.0791C122.289 49.1379 122.456 49.1673 122.638 49.1673C122.813 49.1673 122.977 49.1379 123.131 49.0791C123.285 49.0202 123.407 48.9068 123.498 48.7387C123.596 48.5623 123.645 48.3144 123.645 47.9951V41.9702H124.148V47.8942C124.148 48.2556 124.106 48.5497 124.022 48.7765C123.945 48.995 123.837 49.1631 123.697 49.2807C123.564 49.3984 123.404 49.474 123.215 49.5076C123.033 49.5496 122.841 49.5706 122.638 49.5706Z" fill="#0C0B0B"/>
<path id="Vector_18" d="M105.996 49.4194L107.432 41.9702H108.051L109.477 49.4194H108.932L108.565 47.5917H106.866L106.509 49.4194H105.996ZM106.897 47.2388H108.544L107.726 42.8399L106.897 47.2388Z" fill="#0C0B0B"/>
<path id="Vector_19" d="M92.0674 49.4194V41.9702H94.6992V42.424H92.6021V45.2725H94.2484V45.7515H92.6021V48.9782H94.6992V49.4194H92.0674Z" fill="#0C0B0B"/>
<path id="Vector_20" d="M77.3221 49.4194V41.9702H79.1676C79.4961 41.9702 79.7687 42.0668 79.9854 42.2601C80.2091 42.4534 80.321 42.7685 80.321 43.2054V44.1256C80.321 44.3608 80.2895 44.5709 80.2266 44.7558C80.1707 44.9322 80.0973 45.0751 80.0064 45.1843C79.9016 45.302 79.7792 45.3818 79.6394 45.4238C79.4996 45.4574 79.3843 45.4784 79.2934 45.4868V45.4616C79.4472 45.4616 79.5905 45.4784 79.7233 45.512C79.8561 45.5456 79.968 45.6171 80.0588 45.7263C80.1637 45.8523 80.2441 46.0036 80.3 46.1801C80.3559 46.3565 80.3839 46.5624 80.3839 46.7977V47.8942C80.3839 48.3228 80.328 48.6463 80.2161 48.8648C80.1043 49.0833 79.9505 49.2303 79.7548 49.3059C79.559 49.3816 79.3284 49.4194 79.0627 49.4194H77.3221ZM77.8359 49.0538H78.9788C79.1606 49.0538 79.3179 49.0244 79.4507 48.9656C79.5835 48.9068 79.6849 48.7934 79.7548 48.6253C79.8317 48.4488 79.8701 48.1883 79.8701 47.8438V46.7977C79.8701 46.3691 79.7757 46.0876 79.587 45.9532C79.3983 45.8103 79.1606 45.7389 78.874 45.7389H77.8359V49.0538ZM77.8359 45.323H78.8635C79.1781 45.323 79.4157 45.2263 79.5765 45.0331C79.7443 44.8314 79.8282 44.5499 79.8282 44.1886V43.3063C79.8282 42.9786 79.7513 42.7391 79.5975 42.5878C79.4437 42.4282 79.262 42.3483 79.0522 42.3483H77.8359V45.323Z" fill="#0C0B0B"/>
</g>
</g>
</g>
</svg>
