<svg width="92" height="18" viewBox="0 0 92 18" fill="none" xmlns="http://www.w3.org/2000/svg">
<g id="Group 282">
<path id="Vector" d="M90.1556 8.09438C89.8066 8.09438 89.4991 8.02659 89.2332 7.89101C88.9755 7.74638 88.7761 7.50685 88.6348 7.17241C88.4935 6.82893 88.4229 6.35438 88.4229 5.74877V5.31491C88.5226 5.31491 88.6223 5.31491 88.722 5.31491C88.8301 5.31491 88.9298 5.31491 89.0212 5.31491V5.78945C89.0212 6.26851 89.0669 6.64363 89.1584 6.9148C89.2581 7.18597 89.3952 7.37578 89.5697 7.48425C89.7443 7.59272 89.9437 7.64695 90.1681 7.64695C90.5172 7.64695 90.8039 7.52945 91.0283 7.29444C91.261 7.05038 91.3773 6.61651 91.3773 5.99283C91.3773 5.57703 91.3192 5.26067 91.2028 5.04374C91.0948 4.8268 90.9286 4.65506 90.7042 4.52852C90.4798 4.40197 90.2055 4.27091 89.8814 4.13532C89.6154 4.01781 89.3744 3.88223 89.1584 3.72857C88.9423 3.56587 88.7719 3.35345 88.6472 3.09132C88.5226 2.82015 88.4602 2.47667 88.4602 2.06088C88.4602 1.59989 88.5184 1.21574 88.6348 0.908414C88.7511 0.60109 88.9381 0.375117 89.1958 0.230494C89.4534 0.0768312 89.79 0 90.2055 0C90.7457 0 91.1654 0.153662 91.4646 0.460986C91.7721 0.759272 91.9258 1.18862 91.9258 1.74904V2.61678C91.8261 2.61678 91.7264 2.61678 91.6267 2.61678C91.5352 2.61678 91.4397 2.61678 91.3399 2.61678V1.89818C91.3399 1.44623 91.2402 1.10275 91.0407 0.86774C90.8496 0.632727 90.5712 0.51522 90.2055 0.51522C89.8066 0.51522 89.5157 0.641765 89.3329 0.894856C89.15 1.14795 89.0586 1.52758 89.0586 2.03376C89.0586 2.40436 89.1251 2.69813 89.2581 2.91506C89.3911 3.12296 89.5573 3.28566 89.7567 3.40317C89.9645 3.52067 90.1847 3.62914 90.4174 3.72857C90.7914 3.88223 91.0948 4.04493 91.3275 4.21667C91.5602 4.37937 91.7305 4.59179 91.8386 4.85392C91.9466 5.10701 92.0006 5.46405 92.0006 5.92503C92.0006 6.46737 91.9217 6.89672 91.7638 7.21308C91.6059 7.52945 91.3898 7.75542 91.1155 7.89101C90.8413 8.02659 90.5213 8.09438 90.1556 8.09438Z" fill="#FFFDFD"/>
<path id="Vector_2" d="M84.9774 8.09438L83.0521 3.87599L84.9187 0H85.5409L83.6391 3.90338L85.6113 8.09438H84.9774ZM82.2891 8.09438V0H82.8643V8.09438H82.2891Z" fill="#FFFDFD"/>
<path id="Vector_3" d="M77.0508 8.09438C76.73 8.09438 76.4436 8.05022 76.1916 7.9619C75.9472 7.88242 75.7524 7.7102 75.6073 7.44524C75.4622 7.17145 75.3896 6.76077 75.3896 6.2132V1.73546C75.3896 1.23204 75.4622 0.856688 75.6073 0.609397C75.7524 0.362105 75.951 0.198716 76.203 0.11923C76.4627 0.0397433 76.7491 0 77.0622 0C77.3906 0 77.677 0.0441592 77.9214 0.132477C78.1658 0.211964 78.3567 0.375353 78.4942 0.622645C78.6393 0.869936 78.7119 1.24087 78.7119 1.73546V3.03374H78.162V1.73546C78.162 1.34686 78.1124 1.05982 78.0131 0.874352C77.9214 0.688883 77.7916 0.565238 77.6236 0.503415C77.4632 0.441592 77.2761 0.410681 77.0622 0.410681C76.8484 0.410681 76.6574 0.441592 76.4894 0.503415C76.3214 0.565238 76.1877 0.688883 76.0885 0.874352C75.9968 1.05982 75.951 1.34686 75.951 1.73546V6.35892C75.951 6.74753 75.9968 7.03456 76.0885 7.22003C76.1877 7.4055 76.3214 7.52914 76.4894 7.59097C76.6574 7.65279 76.8484 7.6837 77.0622 7.6837C77.2761 7.6837 77.4632 7.65279 77.6236 7.59097C77.7916 7.52914 77.9214 7.4055 78.0131 7.22003C78.1124 7.03456 78.162 6.74753 78.162 6.35892V5.27261H78.7119V6.2132C78.7119 6.76961 78.6393 7.18029 78.4942 7.44524C78.3567 7.7102 78.162 7.88242 77.91 7.9619C77.6656 8.05022 77.3792 8.09438 77.0508 8.09438Z" fill="#FFFDFD"/>
<path id="Vector_4" d="M71.3008 8.09438V0H71.8119V8.09438H71.3008Z" fill="#FFFDFD"/>
<path id="Vector_5" d="M64.4004 8.09438V0H66.4416C66.8085 0 67.1105 0.105003 67.3475 0.31501C67.5845 0.525016 67.703 0.867418 67.703 1.34222V2.65704C67.703 3.14097 67.5807 3.5062 67.336 3.75273C67.099 3.99925 66.7779 4.12708 66.3728 4.13622V4.12252C66.625 4.12252 66.8123 4.22296 66.9347 4.42383C67.057 4.61558 67.1678 4.91233 67.2672 5.31408L67.9782 8.09438H67.359L66.7053 5.35517C66.6365 5.09038 66.5486 4.84841 66.4416 4.62927C66.3345 4.41014 66.1625 4.30057 65.9255 4.30057H64.9738V8.09438H64.4004ZM64.9738 3.80751H66.1205C66.5027 3.80751 66.7703 3.70251 66.9232 3.4925C67.0761 3.28249 67.1525 2.97661 67.1525 2.57486V1.45178C67.1525 1.10482 67.0799 0.844591 66.9347 0.671107C66.7894 0.497624 66.5639 0.410882 66.2581 0.410882H64.9738V3.80751Z" fill="#FFFDFD"/>
<path id="Vector_6" d="M59.2722 8.00783V4.47138L57.9229 0H58.5485L59.5543 3.53645L59.6034 3.7397L59.6402 3.53645L60.7319 0H61.3207L59.8733 4.49848V8.00783H59.2722Z" fill="#FFFDFD"/>
<path id="Vector_7" d="M49.833 8.09438V0H50.5267L52.2608 6.94391L54.0445 0H54.6886V8.09438H54.1436V1.4107L52.4961 8.09438H52.0378L50.3904 1.4107V8.09438H49.833Z" fill="#FFFDFD"/>
<path id="Vector_8" d="M38.8447 8.09438L40.532 0H41.2587L42.9336 8.09438H42.2932L41.8621 6.10845H39.867L39.4482 8.09438H38.8447ZM39.9039 5.72496H41.8375L40.8769 0.945029L39.9039 5.72496Z" fill="#FFFDFD"/>
<path id="Vector_9" d="M34.4437 8.09438C34.0947 8.09438 33.7872 8.02659 33.5212 7.89101C33.2636 7.74638 33.0641 7.50685 32.9229 7.17241C32.7816 6.82893 32.7109 6.35438 32.7109 5.74877V5.3149C32.8107 5.3149 32.9104 5.3149 33.0101 5.3149C33.1182 5.3149 33.2179 5.3149 33.3093 5.3149V5.78945C33.3093 6.26851 33.355 6.64363 33.4464 6.9148C33.5462 7.18597 33.6833 7.37578 33.8578 7.48425C34.0324 7.59272 34.2318 7.64695 34.4562 7.64695C34.8053 7.64695 35.092 7.52945 35.3164 7.29444C35.5491 7.05038 35.6654 6.61651 35.6654 5.99283C35.6654 5.57703 35.6072 5.26067 35.4909 5.04374C35.3829 4.8268 35.2166 4.65506 34.9922 4.52852C34.7679 4.40197 34.4936 4.27091 34.1695 4.13532C33.9035 4.01781 33.6625 3.88223 33.4464 3.72857C33.2304 3.56587 33.06 3.35345 32.9353 3.09132C32.8107 2.82015 32.7483 2.47667 32.7483 2.06088C32.7483 1.59989 32.8065 1.21574 32.9229 0.908414C33.0392 0.60109 33.2262 0.375117 33.4838 0.230494C33.7415 0.0768312 34.0781 0 34.4936 0C35.0338 0 35.4535 0.153662 35.7527 0.460986C36.0602 0.759272 36.2139 1.18862 36.2139 1.74904V2.61678C36.1142 2.61678 36.0145 2.61678 35.9147 2.61678C35.8233 2.61678 35.7278 2.61678 35.628 2.61678V1.89818C35.628 1.44623 35.5283 1.10275 35.3288 0.86774C35.1377 0.632727 34.8593 0.51522 34.4936 0.51522C34.0947 0.51522 33.8038 0.641765 33.621 0.894856C33.4381 1.14795 33.3467 1.52758 33.3467 2.03376C33.3467 2.40436 33.4132 2.69813 33.5462 2.91506C33.6791 3.12296 33.8454 3.28566 34.0448 3.40317C34.2526 3.52067 34.4728 3.62914 34.7055 3.72857C35.0795 3.88223 35.3829 4.04493 35.6156 4.21667C35.8483 4.37937 36.0186 4.59179 36.1267 4.85392C36.2347 5.10701 36.2887 5.46405 36.2887 5.92503C36.2887 6.46737 36.2098 6.89672 36.0519 7.21308C35.894 7.52945 35.6779 7.75542 35.4036 7.89101C35.1294 8.02659 34.8094 8.09438 34.4437 8.09438Z" fill="#FFFDFD"/>
<path id="Vector_10" d="M28.0551 8.09438C27.706 8.09438 27.3985 8.02659 27.1326 7.89101C26.8749 7.74638 26.6755 7.50685 26.5342 7.17241C26.3929 6.82893 26.3223 6.35438 26.3223 5.74877V5.3149C26.422 5.3149 26.5217 5.3149 26.6215 5.3149C26.7295 5.3149 26.8292 5.3149 26.9206 5.3149V5.78945C26.9206 6.26851 26.9664 6.64363 27.0578 6.9148C27.1575 7.18597 27.2946 7.37578 27.4692 7.48425C27.6437 7.59272 27.8431 7.64695 28.0675 7.64695C28.4166 7.64695 28.7033 7.52945 28.9277 7.29444C29.1604 7.05038 29.2767 6.61651 29.2767 5.99283C29.2767 5.57703 29.2186 5.26067 29.1022 5.04374C28.9942 4.8268 28.828 4.65506 28.6036 4.52852C28.3792 4.40197 28.1049 4.27091 27.7808 4.13532C27.5149 4.01781 27.2739 3.88223 27.0578 3.72857C26.8417 3.56587 26.6713 3.35345 26.5467 3.09132C26.422 2.82015 26.3597 2.47667 26.3597 2.06088C26.3597 1.59989 26.4178 1.21574 26.5342 0.908414C26.6505 0.60109 26.8375 0.375117 27.0952 0.230494C27.3528 0.0768312 27.6894 0 28.1049 0C28.6451 0 29.0648 0.153662 29.364 0.460986C29.6715 0.759272 29.8253 1.18862 29.8253 1.74904V2.61678C29.7255 2.61678 29.6258 2.61678 29.5261 2.61678C29.4347 2.61678 29.3391 2.61678 29.2393 2.61678V1.89818C29.2393 1.44623 29.1396 1.10275 28.9402 0.86774C28.749 0.632727 28.4706 0.51522 28.1049 0.51522C27.706 0.51522 27.4151 0.641765 27.2323 0.894856C27.0495 1.14795 26.958 1.52758 26.958 2.03376C26.958 2.40436 27.0245 2.69813 27.1575 2.91506C27.2905 3.12296 27.4567 3.28566 27.6561 3.40317C27.8639 3.52067 28.0842 3.62914 28.3169 3.72857C28.6908 3.88223 28.9942 4.04493 29.2269 4.21667C29.4596 4.37937 29.63 4.59179 29.738 4.85392C29.846 5.10701 29.9001 5.46405 29.9001 5.92503C29.9001 6.46737 29.8211 6.89672 29.6632 7.21308C29.5053 7.52945 29.2892 7.75542 29.015 7.89101C28.7407 8.02659 28.4207 8.09438 28.0551 8.09438Z" fill="#FFFDFD"/>
<path id="Vector_11" d="M20.4443 8.09438V0H23.2555V0.493059H21.0155V3.58837H22.7739V4.10882H21.0155V7.61502H23.2555V8.09438H20.4443Z" fill="#FFFDFD"/>
<path id="Vector_12" d="M13.2891 8.09438V0H13.7817L16.1072 6.69738V0H16.6113V8.09438H16.0958L13.8046 1.58874V8.09438H13.2891Z" fill="#FFFDFD"/>
<path id="Vector_13" d="M6.13379 8.09438L7.82108 0H8.54772L10.2227 8.09438H9.58226L9.15121 6.10845H7.15602L6.73727 8.09438H6.13379ZM7.19296 5.72496H9.12657L8.16593 0.945029L7.19296 5.72496Z" fill="#FFFDFD"/>
<path id="Vector_14" d="M0 8.09438V0H1.92941C2.21863 0 2.46599 0.0502188 2.67149 0.150657C2.87699 0.251095 3.03682 0.424578 3.15099 0.671107C3.26515 0.917637 3.32224 1.26004 3.32224 1.69831V6.32759C3.32224 6.79325 3.26135 7.15848 3.13957 7.42327C3.01779 7.67893 2.84654 7.85698 2.62582 7.95742C2.41271 8.04873 2.16155 8.09438 1.87232 8.09438H0ZM0.570831 7.6972H1.80383C2.10066 7.6972 2.3366 7.60589 2.51166 7.42327C2.68671 7.23153 2.77424 6.87087 2.77424 6.34128V1.78049C2.77424 1.25091 2.68671 0.89481 2.51166 0.712196C2.3366 0.520451 2.10066 0.424579 1.80383 0.424579H0.570831V7.6972Z" fill="#FFFDFD"/>
<path id="Vector_15" d="M74.0353 17.8858V15.4032L73.1357 12.2643H73.5528L74.2234 14.7469L74.2561 14.8896L74.2806 14.7469L75.0085 12.2643H75.401L74.436 15.4222V17.8858H74.0353Z" fill="#FFFDFD"/>
<path id="Vector_16" d="M62.9835 17.8858V12.6067H62.1494V12.2643H64.2266V12.6067H63.3761V17.8858H62.9835Z" fill="#FFFDFD"/>
<path id="Vector_17" d="M51.9416 18C51.7781 18 51.6254 17.9841 51.4837 17.9524C51.3419 17.9271 51.2165 17.87 51.1075 17.7812C50.9985 17.6924 50.9112 17.5656 50.8458 17.4007C50.7858 17.2295 50.7559 17.0076 50.7559 16.7349V12.2643H51.1566V16.811C51.1566 17.052 51.192 17.239 51.2629 17.3722C51.3392 17.499 51.4346 17.5846 51.5491 17.629C51.669 17.6734 51.7999 17.6956 51.9416 17.6956C52.0779 17.6956 52.2061 17.6734 52.326 17.629C52.4459 17.5846 52.5413 17.499 52.6122 17.3722C52.6885 17.239 52.7267 17.052 52.7267 16.811V12.2643H53.1192V16.7349C53.1192 17.0076 53.0865 17.2295 53.0211 17.4007C52.9611 17.5656 52.8766 17.6924 52.7676 17.7812C52.664 17.87 52.5386 17.9271 52.3914 17.9524C52.2497 17.9841 52.0997 18 51.9416 18Z" fill="#FFFDFD"/>
<path id="Vector_18" d="M38.9619 17.8858L40.0823 12.2643H40.5648L41.6769 17.8858H41.2517L40.9655 16.5066H39.6407L39.3626 17.8858H38.9619ZM39.6652 16.2403H40.9491L40.3113 12.9206L39.6652 16.2403Z" fill="#FFFDFD"/>
<path id="Vector_19" d="M28.0986 17.8858V12.2643H30.1513V12.6067H28.5157V14.7564H29.7996V15.1179H28.5157V17.5529H30.1513V17.8858H28.0986Z" fill="#FFFDFD"/>
<path id="Vector_20" d="M16.5996 17.8858V12.2643H18.0389C18.2951 12.2643 18.5078 12.3372 18.6768 12.4831C18.8512 12.6289 18.9385 12.8667 18.9385 13.1965V13.8908C18.9385 14.0684 18.9139 14.2269 18.8649 14.3664C18.8212 14.4996 18.764 14.6074 18.6931 14.6898C18.6114 14.7786 18.5159 14.8388 18.4069 14.8706C18.2979 14.8959 18.2079 14.9118 18.137 14.9181V14.8991C18.257 14.8991 18.3687 14.9118 18.4723 14.9371C18.5759 14.9625 18.6631 15.0164 18.734 15.0988C18.8158 15.194 18.8785 15.3081 18.9221 15.4413C18.9657 15.5744 18.9875 15.7298 18.9875 15.9074V16.7349C18.9875 17.0583 18.9439 17.3024 18.8567 17.4673C18.7695 17.6322 18.6495 17.7432 18.4969 17.8002C18.3442 17.8573 18.1643 17.8858 17.9571 17.8858H16.5996ZM17.0003 17.61H17.8917C18.0335 17.61 18.1561 17.5878 18.2597 17.5434C18.3633 17.499 18.4423 17.4134 18.4969 17.2866C18.5568 17.1534 18.5868 16.9568 18.5868 16.6968V15.9074C18.5868 15.584 18.5132 15.3715 18.366 15.2701C18.2188 15.1623 18.0335 15.1084 17.8099 15.1084H17.0003V17.61ZM17.0003 14.7945H17.8017C18.0471 14.7945 18.2324 14.7215 18.3578 14.5757C18.4887 14.4235 18.5541 14.2111 18.5541 13.9384V13.2725C18.5541 13.0252 18.4941 12.8445 18.3742 12.7304C18.2543 12.6099 18.1125 12.5496 17.9489 12.5496H17.0003V14.7945Z" fill="#FFFDFD"/>
</g>
</svg>
